<svg xmlns="http://www.w3.org/2000/svg" width="64" height="64" viewBox="0 0 64 64" fill="none">
  <defs>
    <linearGradient id="g" x1="0" y1="0" x2="64" y2="64" gradientUnits="userSpaceOnUse">
      <stop stop-color="#ff9b2f"/>
      <stop offset="0.5" stop-color="#f6d37c"/>
      <stop offset="1" stop-color="#ff5a1f"/>
    </linearGradient>
  </defs>
  <rect x="4" y="4" width="56" height="56" rx="14" fill="#0b0a0d"/>
  <path d="M18 46c10 0 15-6 15-15V18h-9v13c0 4-2 6-6 6s-6-2-6-6V18H9v13c0 9 5 15 15 15Z" fill="url(#g)"/>
  <path d="M37 46V18h9l9 14 9-14h9v28h-9V32l-9 14-9-14v14h-9Z" fill="url(#g)" transform="translate(-10 0)"/>
</svg>
